<svg xmlns="http://www.w3.org/2000/svg" width="1200" height="675" viewBox="0 0 1200 675"><title>BranchGPT: Fork an AI conversation to explore a side thought, then merge it back without losing the main thread.</title><defs><linearGradient id="wash" x2="0" y2="1"><stop stop-color="#1b1d20"/><stop offset=".8" stop-color="#0f1012"/></linearGradient><linearGradient id="hazeGrad" x2="1" y2="1"><stop stop-color="#26282b" stop-opacity=".9"/><stop offset="1" stop-color="#17191c" stop-opacity="0"/></linearGradient><filter id="soft" x="-10%" y="-10%" width="120%" height="130%"><feDropShadow dx="0" dy="10" stdDeviation="14" flood-color="#000000" flood-opacity=".45"/></filter></defs><rect width="1200" height="675" fill="#0f1012"/><rect width="1200" height="675" fill="url(#wash)"/><path d="M1090 560a54 54 0 1 1 26 -100a44 44 0 1 0 -6 96z" fill="#e2e1d7" opacity=".10"/><g filter="url(#soft)"><path d="M400 340H1040" fill="none" stroke="#2c2f33" stroke-width="4" stroke-linecap="round" stroke-linejoin="round" /><path d="M540 340C620 340 580 210 680 210H820C900 210 880 340 960 340" fill="none" stroke="#e2e1d7" stroke-width="5" stroke-linecap="round" stroke-linejoin="round" /><path d="M540 340C620 340 580 470 680 470H800" fill="none" stroke="#2c2f33" stroke-width="4" stroke-linecap="round" stroke-linejoin="round" /><circle cx="400" cy="340" r="10" fill="#17191c"/><path d="M390 340a10 10 0 1 0 20 0a10 10 0 1 0 -20 0" fill="none" stroke="#e2e1d7" stroke-width="3" stroke-linecap="round" stroke-linejoin="round" /><circle cx="540" cy="340" r="10" fill="#17191c"/><path d="M530 340a10 10 0 1 0 20 0a10 10 0 1 0 -20 0" fill="none" stroke="#e2e1d7" stroke-width="3" stroke-linecap="round" stroke-linejoin="round" /><circle cx="680" cy="210" r="10" fill="#17191c"/><path d="M670 210a10 10 0 1 0 20 0a10 10 0 1 0 -20 0" fill="none" stroke="#e2e1d7" stroke-width="3" stroke-linecap="round" stroke-linejoin="round" /><circle cx="820" cy="210" r="10" fill="#17191c"/><path d="M810 210a10 10 0 1 0 20 0a10 10 0 1 0 -20 0" fill="none" stroke="#e2e1d7" stroke-width="3" stroke-linecap="round" stroke-linejoin="round" /><circle cx="680" cy="470" r="10" fill="#17191c"/><path d="M670 470a10 10 0 1 0 20 0a10 10 0 1 0 -20 0" fill="none" stroke="#e2e1d7" stroke-width="3" stroke-linecap="round" stroke-linejoin="round" /><circle cx="800" cy="470" r="10" fill="#17191c"/><path d="M790 470a10 10 0 1 0 20 0a10 10 0 1 0 -20 0" fill="none" stroke="#e2e1d7" stroke-width="3" stroke-linecap="round" stroke-linejoin="round" /><circle cx="960" cy="340" r="10" fill="#17191c"/><path d="M950 340a10 10 0 1 0 20 0a10 10 0 1 0 -20 0" fill="none" stroke="#e2e1d7" stroke-width="3" stroke-linecap="round" stroke-linejoin="round" /><circle cx="1040" cy="340" r="10" fill="#17191c"/><path d="M1030 340a10 10 0 1 0 20 0a10 10 0 1 0 -20 0" fill="none" stroke="#e2e1d7" stroke-width="3" stroke-linecap="round" stroke-linejoin="round" /><text x="700" y="180" font-size="13" fill="#a6aaaf" font-weight="400" text-anchor="start" font-family="'JetBrains Mono',Consolas,monospace">branch</text><text x="1000" y="310" font-size="13" fill="#a6aaaf" font-weight="400" text-anchor="start" font-family="'JetBrains Mono',Consolas,monospace">merge</text><text x="700" y="510" font-size="13" fill="#a6aaaf" font-weight="400" text-anchor="start" font-family="'JetBrains Mono',Consolas,monospace">fork kept</text></g><g><text x="58" y="80" font-size="15" fill="#a6aaaf" font-weight="400" text-anchor="start" font-family="'JetBrains Mono',Consolas,monospace">BRANCHGPT</text><text x="58" y="124" font-size="24" fill="#f1f1ee" font-weight="700" text-anchor="start" font-family="Arial,Helvetica,sans-serif">Chat tool</text></g></svg>