<svg xmlns="http://www.w3.org/2000/svg" width="1200" height="675" viewBox="0 0 1200 675"><title>Forge: Sixteen linked engineering skills for Claude Code, plus a memory layer that learns from your sessions and a live map of your codebase.</title><defs><linearGradient id="wash" x2="0" y2="1"><stop stop-color="#1b1d20"/><stop offset=".8" stop-color="#0f1012"/></linearGradient><linearGradient id="hazeGrad" x2="1" y2="1"><stop stop-color="#26282b" stop-opacity=".9"/><stop offset="1" stop-color="#17191c" stop-opacity="0"/></linearGradient><filter id="soft" x="-10%" y="-10%" width="120%" height="130%"><feDropShadow dx="0" dy="10" stdDeviation="14" flood-color="#000000" flood-opacity=".45"/></filter></defs><rect width="1200" height="675" fill="#0f1012"/><rect width="1200" height="675" fill="url(#wash)"/><path d="M1090 560a54 54 0 1 1 26 -100a44 44 0 1 0 -6 96z" fill="#e2e1d7" opacity=".10"/><g filter="url(#soft)"><rect x="320" y="242" width="80" height="36" rx="8" fill="#17191c" stroke="#33363b" stroke-width="1.5"/><text x="360" y="265" font-size="12" fill="#f1f1ee" font-weight="400" text-anchor="middle" font-family="'JetBrains Mono',Consolas,monospace">understand</text><path d="M400 260L408 300" fill="none" stroke="#2c2f33" stroke-width="2" stroke-linecap="round" stroke-linejoin="round" /><rect x="408" y="322" width="80" height="36" rx="8" fill="#17191c" stroke="#33363b" stroke-width="1.5"/><text x="448" y="345" font-size="12" fill="#f1f1ee" font-weight="400" text-anchor="middle" font-family="'JetBrains Mono',Consolas,monospace">brainstorm</text><path d="M488 340L496 300" fill="none" stroke="#2c2f33" stroke-width="2" stroke-linecap="round" stroke-linejoin="round" /><rect x="496" y="242" width="80" height="36" rx="8" fill="#17191c" stroke="#33363b" stroke-width="1.5"/><text x="536" y="265" font-size="12" fill="#f1f1ee" font-weight="400" text-anchor="middle" font-family="'JetBrains Mono',Consolas,monospace">architect</text><path d="M576 260L584 300" fill="none" stroke="#2c2f33" stroke-width="2" stroke-linecap="round" stroke-linejoin="round" /><rect x="584" y="322" width="80" height="36" rx="8" fill="#17191c" stroke="#33363b" stroke-width="1.5"/><text x="624" y="345" font-size="12" fill="#f1f1ee" font-weight="400" text-anchor="middle" font-family="'JetBrains Mono',Consolas,monospace">plan</text><path d="M664 340L672 300" fill="none" stroke="#2c2f33" stroke-width="2" stroke-linecap="round" stroke-linejoin="round" /><rect x="672" y="242" width="80" height="36" rx="8" fill="#e2e1d7" stroke="#e2e1d7" stroke-width="1.5"/><text x="712" y="265" font-size="12" fill="#0f1012" font-weight="400" text-anchor="middle" font-family="'JetBrains Mono',Consolas,monospace">tdd</text><path d="M752 260L760 300" fill="none" stroke="#2c2f33" stroke-width="2" stroke-linecap="round" stroke-linejoin="round" /><rect x="760" y="322" width="80" height="36" rx="8" fill="#17191c" stroke="#33363b" stroke-width="1.5"/><text x="800" y="345" font-size="12" fill="#f1f1ee" font-weight="400" text-anchor="middle" font-family="'JetBrains Mono',Consolas,monospace">debug</text><path d="M840 340L848 300" fill="none" stroke="#2c2f33" stroke-width="2" stroke-linecap="round" stroke-linejoin="round" /><rect x="848" y="242" width="80" height="36" rx="8" fill="#17191c" stroke="#33363b" stroke-width="1.5"/><text x="888" y="265" font-size="12" fill="#f1f1ee" font-weight="400" text-anchor="middle" font-family="'JetBrains Mono',Consolas,monospace">review</text><path d="M928 260L936 300" fill="none" stroke="#2c2f33" stroke-width="2" stroke-linecap="round" stroke-linejoin="round" /><rect x="936" y="322" width="80" height="36" rx="8" fill="#17191c" stroke="#33363b" stroke-width="1.5"/><text x="976" y="345" font-size="12" fill="#f1f1ee" font-weight="400" text-anchor="middle" font-family="'JetBrains Mono',Consolas,monospace">verify</text><path d="M1016 340L1024 300" fill="none" stroke="#2c2f33" stroke-width="2" stroke-linecap="round" stroke-linejoin="round" /><rect x="1024" y="242" width="80" height="36" rx="8" fill="#17191c" stroke="#33363b" stroke-width="1.5"/><text x="1064" y="265" font-size="12" fill="#f1f1ee" font-weight="400" text-anchor="middle" font-family="'JetBrains Mono',Consolas,monospace">ship</text><text x="720" y="190" font-size="13" fill="#a6aaaf" font-weight="400" text-anchor="middle" font-family="'JetBrains Mono',Consolas,monospace">one hand-off chain · each rule falsifiable</text><rect x="360" y="420" width="330" height="130" rx="12" fill="#17191c" stroke="#33363b" stroke-width="1.5"/><text x="380" y="448" font-size="12" fill="#a6aaaf" font-weight="400" text-anchor="start" font-family="'JetBrains Mono',Consolas,monospace">memory  jsonl → lessons</text><rect x="380" y="470" width="250" height="6" rx="4" fill="#2c2f33"/><rect x="380" y="488" width="200" height="6" rx="4" fill="#2c2f33"/><rect x="380" y="506" width="230" height="6" rx="4" fill="#2c2f33"/><rect x="730" y="420" width="330" height="130" rx="12" fill="#17191c" stroke="#33363b" stroke-width="1.5"/><text x="750" y="448" font-size="12" fill="#a6aaaf" font-weight="400" text-anchor="start" font-family="'JetBrains Mono',Consolas,monospace">code graph  live</text><circle cx="800" cy="500" r="6" fill="#e2e1d7"/><circle cx="860" cy="480" r="6" fill="#e2e1d7"/><circle cx="920" cy="515" r="6" fill="#e2e1d7"/><circle cx="980" cy="485" r="6" fill="#e2e1d7"/><circle cx="1030" cy="520" r="6" fill="#e2e1d7"/><path d="M800 500L860 480L920 515L980 485L1030 520M860 480L920 515" fill="none" stroke="#2c2f33" stroke-width="2" stroke-linecap="round" stroke-linejoin="round" /></g><g><text x="58" y="80" font-size="15" fill="#a6aaaf" font-weight="400" text-anchor="start" font-family="'JetBrains Mono',Consolas,monospace">FORGE</text><text x="58" y="124" font-size="24" fill="#f1f1ee" font-weight="700" text-anchor="start" font-family="Arial,Helvetica,sans-serif">Claude Code plugin</text></g></svg>