<svg xmlns="http://www.w3.org/2000/svg" width="1200" height="675" viewBox="0 0 1200 675"><title>HoleEmAll: A tiny Pygame arcade loop: move, swallow, grow, beat the countdown.</title><defs><linearGradient id="wash" x2="0" y2="1"><stop stop-color="#ffffff"/><stop offset=".8" stop-color="#f5f4ef"/></linearGradient><linearGradient id="hazeGrad" x2="1" y2="1"><stop stop-color="#dde7ee" stop-opacity=".9"/><stop offset="1" stop-color="#ffffff" stop-opacity="0"/></linearGradient><filter id="soft" x="-10%" y="-10%" width="120%" height="130%"><feDropShadow dx="0" dy="10" stdDeviation="14" flood-color="#172d45" flood-opacity=".10"/></filter></defs><rect width="1200" height="675" fill="#f5f4ef"/><rect width="1200" height="675" fill="url(#wash)"/><circle cx="1096" cy="540" r="52" fill="none" stroke="#c9b58a" stroke-width="3" opacity=".22"/><g filter="url(#soft)"><rect x="330" y="110" width="760" height="470" rx="16" fill="#eef1ef" stroke="#d4d8d0" stroke-width="2"/><circle cx="640" cy="360" r="58" fill="#172d45"/><circle cx="640" cy="360" r="44" fill="#f5f4ef"/><circle cx="640" cy="360" r="36" fill="#172d45"/><circle cx="430" cy="200" r="10" fill="#356a91"/><circle cx="520" cy="470" r="14" fill="#356a91"/><circle cx="820" cy="240" r="8" fill="#356a91"/><circle cx="900" cy="430" r="18" fill="#356a91"/><circle cx="980" cy="300" r="12" fill="#356a91"/><circle cx="760" cy="520" r="9" fill="#356a91"/><circle cx="400" cy="380" r="7" fill="#356a91"/><text x="1060" y="150" font-size="18" fill="#172d45" font-weight="400" text-anchor="end" font-family="'JetBrains Mono',Consolas,monospace">00:27</text><text x="360" y="150" font-size="14" fill="#5b6871" font-weight="400" text-anchor="start" font-family="'JetBrains Mono',Consolas,monospace">score 14</text></g><g><text x="58" y="80" font-size="15" fill="#5b6871" font-weight="400" text-anchor="start" font-family="'JetBrains Mono',Consolas,monospace">HOLEEMALL</text><text x="58" y="124" font-size="24" fill="#172d45" font-weight="700" text-anchor="start" font-family="Arial,Helvetica,sans-serif">Arcade game</text></g></svg>