<svg xmlns="http://www.w3.org/2000/svg" width="1200" height="675" viewBox="0 0 1200 675"><title>LeetBot: Hints, a tutor mode, and zoomable explanation diagrams next to the coding problem you are stuck on.</title><defs><linearGradient id="wash" x2="0" y2="1"><stop stop-color="#1b1d20"/><stop offset=".8" stop-color="#0f1012"/></linearGradient><linearGradient id="hazeGrad" x2="1" y2="1"><stop stop-color="#26282b" stop-opacity=".9"/><stop offset="1" stop-color="#17191c" stop-opacity="0"/></linearGradient><filter id="soft" x="-10%" y="-10%" width="120%" height="130%"><feDropShadow dx="0" dy="10" stdDeviation="14" flood-color="#000000" flood-opacity=".45"/></filter></defs><rect width="1200" height="675" fill="#0f1012"/><rect width="1200" height="675" fill="url(#wash)"/><path d="M1090 560a54 54 0 1 1 26 -100a44 44 0 1 0 -6 96z" fill="#e2e1d7" opacity=".10"/><g filter="url(#soft)"><rect x="330" y="110" width="760" height="470" rx="14" fill="#17191c" stroke="#33363b" stroke-width="1.5"/><path d="M330 150H1090" fill="none" stroke="#33363b" stroke-width="1.5" stroke-linecap="round" stroke-linejoin="round" /><circle cx="352" cy="130" r="5" fill="#2c2f33"/><circle cx="372" cy="130" r="5" fill="#2c2f33"/><circle cx="392" cy="130" r="5" fill="#2c2f33"/><text x="710" y="135" font-size="13" fill="#a6aaaf" font-weight="400" text-anchor="middle" font-family="'JetBrains Mono',Consolas,monospace">problem 146 · LRU cache</text><rect x="370" y="175" width="400" height="8" rx="4" fill="#2c2f33"/><rect x="370" y="197" width="360" height="8" rx="4" fill="#2c2f33"/><rect x="370" y="219" width="420" height="8" rx="4" fill="#2c2f33"/><rect x="370" y="241" width="300" height="8" rx="4" fill="#2c2f33"/><rect x="760" y="180" width="300" height="330" rx="12" fill="#17191c" stroke="#e2e1d7" stroke-width="2"/><text x="780" y="208" font-size="12" fill="#a6aaaf" font-weight="400" text-anchor="start" font-family="'JetBrains Mono',Consolas,monospace">hint · tutor · plan</text><rect x="820" y="254" width="80" height="32" rx="8" fill="#26282b" stroke="#33363b" stroke-width="1.5"/><text x="860" y="275" font-size="12" fill="#f1f1ee" font-weight="400" text-anchor="middle" font-family="'JetBrains Mono',Consolas,monospace">get</text><rect x="920" y="254" width="80" height="32" rx="8" fill="#26282b" stroke="#33363b" stroke-width="1.5"/><text x="960" y="275" font-size="12" fill="#f1f1ee" font-weight="400" text-anchor="middle" font-family="'JetBrains Mono',Consolas,monospace">put</text><rect x="870" y="344" width="80" height="32" rx="8" fill="#26282b" stroke="#33363b" stroke-width="1.5"/><text x="910" y="365" font-size="12" fill="#f1f1ee" font-weight="400" text-anchor="middle" font-family="'JetBrains Mono',Consolas,monospace">evict</text><path d="M860 286L900 344M960 286L920 344" fill="none" stroke="#e2e1d7" stroke-width="2" stroke-linecap="round" stroke-linejoin="round" /><rect x="780" y="420" width="240" height="6" rx="4" fill="#2c2f33"/><rect x="780" y="438" width="200" height="6" rx="4" fill="#2c2f33"/><rect x="780" y="456" width="220" height="6" rx="4" fill="#2c2f33"/></g><g><text x="58" y="80" font-size="15" fill="#a6aaaf" font-weight="400" text-anchor="start" font-family="'JetBrains Mono',Consolas,monospace">LEETBOT</text><text x="58" y="124" font-size="24" fill="#f1f1ee" font-weight="700" text-anchor="start" font-family="Arial,Helvetica,sans-serif">Browser extension</text></g></svg>