<svg xmlns="http://www.w3.org/2000/svg" width="1200" height="675" viewBox="0 0 1200 675"><title>Ori no Michi: Learn origami from a 3D model you can orbit, scrub, and pause while you fold along with real paper.</title><defs><linearGradient id="wash" x2="0" y2="1"><stop stop-color="#ffffff"/><stop offset=".8" stop-color="#f5f4ef"/></linearGradient><linearGradient id="hazeGrad" x2="1" y2="1"><stop stop-color="#dde7ee" stop-opacity=".9"/><stop offset="1" stop-color="#ffffff" stop-opacity="0"/></linearGradient><filter id="soft" x="-10%" y="-10%" width="120%" height="130%"><feDropShadow dx="0" dy="10" stdDeviation="14" flood-color="#172d45" flood-opacity=".10"/></filter></defs><rect width="1200" height="675" fill="#f5f4ef"/><rect width="1200" height="675" fill="url(#wash)"/><circle cx="1096" cy="540" r="52" fill="none" stroke="#c9b58a" stroke-width="3" opacity=".22"/><g filter="url(#soft)"><polygon points="560,420 720,260 880,420 720,520" fill="#dde7ee" stroke="#356a91" stroke-width="2.5"/><polygon points="560,420 720,260 720,520" fill="#ffffff" stroke="#356a91" stroke-width="2.5"/><polygon points="720,260 640,180 800,260" fill="#ffffff" stroke="#356a91" stroke-width="2.5"/><path d="M720 260L720 520" fill="none" stroke="#356a91" stroke-width="2" stroke-linecap="round" stroke-linejoin="round" stroke-dasharray="6 8"/><path d="M800 260L720 340" fill="none" stroke="#356a91" stroke-width="2" stroke-linecap="round" stroke-linejoin="round" stroke-dasharray="6 8"/><path d="M880 300A160 160 0 0 1 900 420" fill="none" stroke="#5b6871" stroke-width="2" stroke-linecap="round" stroke-linejoin="round" stroke-dasharray="2 8"/><text x="880" y="280" font-size="12" fill="#5b6871" font-weight="400" text-anchor="start" font-family="'JetBrains Mono',Consolas,monospace">valley fold</text><rect x="560" y="560" width="320" height="30" rx="15" fill="#ffffff" stroke="#d4d8d0" stroke-width="1.5"/><path d="M580 575H860" fill="none" stroke="#d4d8d0" stroke-width="2" stroke-linecap="round" stroke-linejoin="round" /><circle cx="700" cy="575" r="8" fill="#356a91"/><text x="880" y="580" font-size="12" fill="#5b6871" font-weight="400" text-anchor="start" font-family="'JetBrains Mono',Consolas,monospace">step 4 / 12</text></g><g><text x="58" y="80" font-size="15" fill="#5b6871" font-weight="400" text-anchor="start" font-family="'JetBrains Mono',Consolas,monospace">ORI NO MICHI</text><text x="58" y="124" font-size="24" fill="#172d45" font-weight="700" text-anchor="start" font-family="Arial,Helvetica,sans-serif">Origami in 3D</text></g></svg>