<svg xmlns="http://www.w3.org/2000/svg" width="960" height="540" viewBox="0 0 480 270"><defs>
 <filter id="cut" x="-15%" y="-15%" width="140%" height="145%"><feTurbulence type="fractalNoise" baseFrequency=".085" numOctaves="3" seed="8" result="edge"/><feDisplacementMap in="SourceGraphic" in2="edge" scale="1.6" xChannelSelector="R" yChannelSelector="G"/><feDropShadow dx="1" dy="3" stdDeviation="1.8" flood-color="#29331e" flood-opacity=".24"/></filter>
 <filter id="grain"><feTurbulence type="fractalNoise" baseFrequency=".72" numOctaves="3" stitchTiles="stitch" seed="12"/><feColorMatrix type="saturate" values="0"/><feComponentTransfer><feFuncA type="linear" slope=".23"/></feComponentTransfer><feBlend in="SourceGraphic" mode="soft-light"/></filter>
 <radialGradient id="wash"><stop stop-color="#abb797"/><stop offset="1" stop-color="#909f7e"/></radialGradient></defs>
 <g filter="url(#grain)"><rect x="0" y="0" width="480" height="270" rx="2" fill="url(#wash)"/><g filter="url(#cut)" transform="rotate(-9 160 120)"><rect x="110" y="81" width="105" height="83" rx="2" fill="#fff0d7"/><path d="M118 155 147 119 167 143 184 127 207 155Z" fill="#c6d1b4"/><circle cx="185" cy="105" r="10" fill="#edaa83"/></g><path d="M228 133h30m-9-9 9 9-9 9" fill="none" stroke="#2e3229" stroke-width="5" stroke-linecap="round" stroke-linejoin="round"/><g filter="url(#cut)" transform=""><path d="M282 89h31l10 11h49v88h-90Z" fill="#fff0d7"/><rect x="293" y="117" width="68" height="60" rx="2" fill="#edaa83"/><rect x="304" y="134" width="45" height="5" rx="2" fill="#2e3229"/><rect x="304" y="150" width="35" height="5" rx="2" fill="#2e3229"/></g></g></svg>